<svg xmlns="http://www.w3.org/2000/svg" xmlns:xlink="http://www.w3.org/1999/xlink" width="37" height="71" viewBox="0 0 37 71">
  <metadata><?xpacket begin="﻿" id="W5M0MpCehiHzreSzNTczkc9d"?>
<x:xmpmeta xmlns:x="adobe:ns:meta/" x:xmptk="Adobe XMP Core 5.6-c138 79.159824, 2016/09/14-01:09:01        ">
   <rdf:RDF xmlns:rdf="http://www.w3.org/1999/02/22-rdf-syntax-ns#">
      <rdf:Description rdf:about=""/>
   </rdf:RDF>
</x:xmpmeta>
                                                                                                    
                                                                                                    
                                                                                                    
                                                                                                    
                                                                                                    
                                                                                                    
                                                                                                    
                                                                                                    
                                                                                                    
                                                                                                    
                                                                                                    
                                                                                                    
                                                                                                    
                                                                                                    
                                                                                                    
                                                                                                    
                                                                                                    
                                                                                                    
                                                                                                    
                                                                                                    
                           
<?xpacket end="w"?></metadata>
<defs>
    <style>
      .cls-1 {
        fill-rule: evenodd;
        filter: url(#filter);
      }
    </style>
    <filter id="filter" x="972" y="909" width="37" height="71" filterUnits="userSpaceOnUse">
      <feFlood result="flood" flood-color="#fff"/>
      <feComposite result="composite" operator="in" in2="SourceGraphic"/>
      <feBlend result="blend" in2="SourceGraphic"/>
    </filter>
  </defs>
  <path id="Forma_1" data-name="Forma 1" class="cls-1" d="M991.6,929.131a7.8,7.8,0,0,1,1.485-4.153c0.979-1.641,1.99-3.338,1.286-5.67a8.315,8.315,0,0,0-3.274-4.123c-1.618-1.249-2.785-2.152-2.176-5.575l0.053-.294-1.742-.305-0.051.291c-0.793,4.472,1.133,5.96,2.831,7.273a6.666,6.666,0,0,1,2.672,3.263c0.473,1.571-.232,2.751-1.12,4.243a9.367,9.367,0,0,0-1.74,5.049C981.006,929.139,972,929.5,972,960.7c0,14.057,11.349,19.294,18.5,19.294s18.5-5.237,18.5-19.294C1009,929.541,999.823,929.157,991.6,929.131Zm-0.216,1.76c7.277,0.016,14.1.3,15.556,20.734a38.76,38.76,0,0,1-15.556,3.672v-3.808a2.348,2.348,0,0,0,1.909-2.287v-11.5a2.351,2.351,0,0,0-1.909-2.29v-4.525Zm-1.325,6.232h0.883a0.586,0.586,0,0,1,.584.583v11.5a0.581,0.581,0,0,1-.584.577h-0.883a0.58,0.58,0,0,1-.583-0.577v-11.5A0.585,0.585,0,0,1,990.059,937.123Zm-0.446-6.232v4.525a2.349,2.349,0,0,0-1.907,2.29v11.5a2.345,2.345,0,0,0,1.907,2.287V955.3a38.069,38.069,0,0,1-15.558-3.644C975.514,931.191,982.333,930.907,989.613,930.891Zm0.887,47.333c-6.47,0-16.737-4.758-16.737-17.531,0-2.546.058-4.945,0.174-7.141a40.541,40.541,0,0,0,33.123-.04c0.11,2.206.17,4.622,0.17,7.183C1007.23,973.466,996.968,978.224,990.5,978.224Zm5.691-43.771-1.732,2.106h3.46Zm0.062,18.036,1.728-2.105h-3.456Z" transform="translate(-972 -909)"/>
</svg>
