<svg style="position: absolute; width: 0; height: 0; overflow: hidden;" version="1.1" xmlns="http://www.w3.org/2000/svg" xmlns:xlink="http://www.w3.org/1999/xlink">
<defs>
<symbol id="icon-periode" viewBox="0 0 32 32">
<title>periode</title>
<path d="M4 5v-4c0-0.553 0.447-1 1-1s1 0.447 1 1v4c0 0.553-0.447 1-1 1s-1-0.447-1-1zM21 6c0.553 0 1-0.447 1-1v-4c0-0.553-0.447-1-1-1s-1 0.447-1 1v4c0 0.553 0.448 1 1 1zM32 24c0 4.418-3.582 8-8 8s-8-3.582-8-8c0-4.418 3.582-8 8-8s8 3.582 8 8zM30 24c0-3.308-2.691-6-6-6s-6 2.692-6 6c0 3.309 2.691 6 6 6s6-2.691 6-6zM8 12h-4v4h4v-4zM4 22h4v-4h-4v4zM10 16h4v-4h-4v4zM10 22h4v-4h-4v4zM2 23.801v-13.801h22v4h2v-7.801c0-1.215-0.969-2.199-2.166-2.199h-0.834v1c0 1.101-0.897 2-2 2s-2-0.899-2-2v-1h-12v1c0 1.101-0.896 2-2 2s-2-0.899-2-2v-1h-0.833c-1.197 0-2.167 0.984-2.167 2.199v17.602c0 1.211 0.97 2.199 2.167 2.199h11.833v-2h-11.833c-0.091-0-0.167-0.094-0.167-0.199zM20 16v-4h-4v4h4zM27 24h-3v-3c0-0.552-0.447-1-1-1s-1 0.447-1 1v4c0 0.553 0.447 1 1 1h4c0.553 0 1-0.447 1-1s-0.447-1-1-1z"></path>
</symbol>
<symbol id="icon-pilihan" viewBox="0 0 35 32">
<title>pilihan</title>
<path d="M34.014 2.766c-0.679-0.679-1.779-0.679-2.458 0l-15.599 15.602-7.186-7.186c-0.679-0.679-1.78-0.679-2.458 0-0.679 0.678-0.679 1.779 0 2.458l8.415 8.415c0.326 0.326 0.768 0.509 1.229 0.509s0.903-0.183 1.229-0.509l16.829-16.831c0.678-0.678 0.678-1.779-0.001-2.458v0z"></path>
<path d="M30.262 13.906c-0.961 0-1.738 0.778-1.738 1.738v12.879h-25.047v-25.047h19.832c0.96 0 1.738-0.779 1.738-1.738s-0.778-1.738-1.738-1.738h-21.571c-0.96 0-1.738 0.778-1.738 1.738v28.524c0 0.96 0.779 1.738 1.738 1.738h28.524c0.96 0 1.738-0.778 1.738-1.738v-14.618c0-0.96-0.778-1.738-1.738-1.738v0z"></path>
</symbol>
<symbol id="icon-nilai" viewBox="0 0 25 32">
<title>nilai</title>
<path d="M19.561 24.89v-12.44h-3.561v12.44h-5.33l7.11 7.11 7.11-7.11h-5.33zM7.11 0l-7.11 7.11h5.33v12.451h3.561v-12.451h5.33l-7.11-7.11z"></path>
</symbol>
<symbol id="icon-article" viewBox="0 0 25 32">
<title>article</title>
<path d="M24.318 0h-0.688c-0.285 0-0.516 0.231-0.516 0.516s0.231 0.516 0.516 0.516h0.172v29.935h-0.172c-0.285 0-0.516 0.231-0.516 0.516s0.231 0.516 0.516 0.516h0.688c0.285 0 0.516-0.231 0.516-0.516v-30.968c0-0.285-0.231-0.516-0.516-0.516v0z"></path>
<path d="M18.125 9.634h-14.168c-0.285 0-0.516 0.231-0.516 0.516s0.231 0.516 0.516 0.516h14.168c0.285 0 0.516-0.231 0.516-0.516s-0.231-0.516-0.516-0.516v0z"></path>
<path d="M18.125 17.892h-14.168c-0.285 0-0.516 0.231-0.516 0.516s0.231 0.516 0.516 0.516h14.168c0.285 0 0.516-0.231 0.516-0.516s-0.231-0.516-0.516-0.516v0z"></path>
<path d="M18.125 20.645h-5.708c-0.285 0-0.516 0.231-0.516 0.516s0.231 0.516 0.516 0.516h5.708c0.285 0 0.516-0.231 0.516-0.516s-0.231-0.516-0.516-0.516v0z"></path>
<path d="M21.565 0h-16.232c-0.017 0-0.035 0.001-0.051 0.003-0.013 0.001-0.025 0.003-0.038 0.006-0.004 0.001-0.008 0.001-0.012 0.002-0.015 0.003-0.029 0.007-0.044 0.011-0.002 0.001-0.003 0.001-0.005 0.001-0.015 0.004-0.029 0.010-0.043 0.015-0.002 0-0.003 0.001-0.005 0.002-0.013 0.005-0.026 0.012-0.039 0.018-0.002 0.001-0.004 0.002-0.006 0.003-0.012 0.006-0.024 0.013-0.035 0.021-0.003 0.002-0.006 0.003-0.009 0.005-0.010 0.007-0.020 0.015-0.031 0.023-0.003 0.003-0.007 0.005-0.010 0.007-0.012 0.010-0.023 0.020-0.034 0.031-0.001 0.001-0.002 0.002-0.003 0.003l-4.817 4.817c-0.001 0.001-0.002 0.003-0.003 0.004-0.011 0.011-0.021 0.022-0.031 0.033-0.003 0.004-0.005 0.008-0.008 0.012-0.007 0.009-0.015 0.019-0.021 0.029-0.002 0.003-0.004 0.007-0.006 0.010-0.007 0.011-0.014 0.022-0.020 0.033-0.001 0.003-0.002 0.005-0.004 0.008-0.006 0.012-0.012 0.025-0.018 0.038-0.001 0.002-0.001 0.004-0.002 0.006-0.005 0.014-0.011 0.028-0.015 0.042-0.001 0.002-0.001 0.004-0.002 0.005-0.004 0.014-0.008 0.029-0.011 0.043-0.001 0.004-0.001 0.008-0.002 0.012-0.002 0.012-0.005 0.025-0.006 0.038-0.002 0.017-0.003 0.034-0.003 0.052v26.15c0 0.285 0.231 0.516 0.516 0.516h21.049c0.285 0 0.516-0.231 0.516-0.516v-30.968c0-0.285-0.231-0.516-0.516-0.516v0zM4.817 1.762v3.055h-3.055l3.055-3.055zM21.049 30.968h-20.017v-25.118h4.301c0.285 0 0.516-0.231 0.516-0.516v-4.301h15.2v29.935z"></path>
<path d="M7.398 5.849h10.727c0.285 0 0.516-0.231 0.516-0.516s-0.231-0.516-0.516-0.516h-10.727c-0.285 0-0.516 0.231-0.516 0.516s0.231 0.516 0.516 0.516v0z"></path>
<path d="M18.125 12.387h-5.708c-0.285 0-0.516 0.231-0.516 0.516s0.231 0.516 0.516 0.516h5.708c0.285 0 0.516-0.231 0.516-0.516s-0.231-0.516-0.516-0.516v0z"></path>
<path d="M18.125 15.14h-5.708c-0.285 0-0.516 0.231-0.516 0.516s0.231 0.516 0.516 0.516h5.708c0.285 0 0.516-0.231 0.516-0.516s-0.231-0.516-0.516-0.516v0z"></path>
<path d="M9.664 21.677c0.285 0 0.516-0.231 0.516-0.516s-0.231-0.516-0.516-0.516h-5.707c-0.285 0-0.516 0.231-0.516 0.516v5.505c0 0.285 0.231 0.516 0.516 0.516h5.707c0.285 0 0.516-0.231 0.516-0.516v-3.441c0-0.285-0.231-0.516-0.516-0.516s-0.516 0.231-0.516 0.516v2.925h-4.675v-4.473h5.191z"></path>
<path d="M3.957 16.172h5.707c0.285 0 0.516-0.231 0.516-0.516s-0.231-0.516-0.516-0.516h-5.707c-0.285 0-0.516 0.231-0.516 0.516s0.231 0.516 0.516 0.516v0z"></path>
<path d="M14.684 26.15h-2.267c-0.285 0-0.516 0.231-0.516 0.516s0.231 0.516 0.516 0.516h2.267c0.285 0 0.516-0.231 0.516-0.516s-0.231-0.516-0.516-0.516v0z"></path>
<path d="M18.125 23.398h-5.708c-0.285 0-0.516 0.231-0.516 0.516s0.231 0.516 0.516 0.516h5.708c0.285 0 0.516-0.231 0.516-0.516s-0.231-0.516-0.516-0.516v0z"></path>
<path d="M3.957 13.419h5.707c0.285 0 0.516-0.231 0.516-0.516s-0.231-0.516-0.516-0.516h-5.707c-0.285 0-0.516 0.231-0.516 0.516s0.231 0.516 0.516 0.516v0z"></path>
</symbol>
<symbol id="icon-dibaca" viewBox="0 0 32 32">
<title>dibaca</title>
<path d="M15 32l-15-4v-24l15 4v24zM32 4l-15 4v24l15-4v-24zM16 6.197l12-3.201v-2.996l-12 6-12-6v2.996l12 3.201z"></path>
</symbol>
<symbol id="icon-comment" viewBox="0 0 32 32">
<title>comment</title>
<path d="M6.191 3.934h20.143c1.365 0 2.519 1.154 2.519 2.519v13.848c0 1.365-1.154 2.519-2.519 2.519h-11.984l-4.071 4.479c-0.082 0.088-0.195 0.137-0.312 0.137-0.051 0-0.102-0.011-0.152-0.029-0.162-0.061-0.269-0.217-0.269-0.391v-4.197h-3.356c-1.365 0-2.519-1.154-2.519-2.519v-13.848c0-1.365 1.154-2.519 2.519-2.519v0z"></path>
</symbol>
<symbol id="icon-like" viewBox="0 0 32 32">
<title>like</title>
<path d="M5.224 10.454h-4.179c-0.574 0-1.045 0.468-1.045 1.045v18.805c0 0.577 0.468 1.045 1.045 1.045h4.179c0.577 0 1.045-0.468 1.045-1.045v-18.805c0-0.577-0.47-1.045-1.045-1.045z"></path>
<path d="M21.345 10.454l1.1-3.002c0.759-2.073 0.268-5.239-1.839-6.365-0.686-0.367-1.644-0.551-2.417-0.356-0.443 0.112-0.833 0.405-1.065 0.798-0.267 0.452-0.239 0.98-0.334 1.481-0.241 1.271-0.842 2.48-1.772 3.388-1.622 1.582-6.661 6.146-6.661 6.146v16.716h17.412c2.349 0.001 3.889-2.622 2.73-4.672 1.381-0.885 1.854-2.748 1.045-4.179 1.381-0.885 1.854-2.748 1.045-4.179 2.383-1.526 1.587-5.304-1.198-5.775-0.168-0.028-8.046 0-8.046 0z"></path>
</symbol>
<symbol id="icon-login" viewBox="0 0 32 32">
<title>login</title>
<path d="M29.901 15.699c0-0.441-0.36-0.799-0.801-0.799h-15.365l3.404-3.328c0.313-0.313 0.313-0.781 0-1.094-0.311-0.313-0.818-0.293-1.131 0.020l-5.125 5.135c-0.15 0.15-0.235 0.357-0.235 0.57s0.084 0.418 0.235 0.569l5.127 5.125c0.156 0.156 0.359 0.236 0.564 0.236s0.41-0.078 0.567-0.235c0.313-0.313 0.313-0.895 0-1.207l-4.115-4.191h16.074c0.442 0 0.801-0.36 0.801-0.801v0z"></path>
<path d="M22.099 26.213v-4.76c0-0.442-0.358-0.8-0.799-0.8s-0.801 0.359-0.801 0.8v4.76c0 1.076-0.814 1.486-1.817 1.486h-10.4c-0.955 0-2.184-0.359-2.184-1.486v-19.896c0-1.080 1.146-2.217 2.184-2.217h10.4c1.037 0 1.817 1.157 1.817 2.217v4.736c0 0.441 0.36 0.799 0.801 0.799s0.799-0.357 0.799-0.799v-4.736c0-1.952-1.49-3.817-3.416-3.817h-10.4c-1.908 0-3.783 1.865-3.783 3.817v19.896c0 1.846 1.74 3.088 3.783 3.088h10.4c2.063 0 3.416-1.242 3.416-3.088v0z"></path>
</symbol>
<symbol id="icon-menu" viewBox="0 0 32 32">
<title>menu</title>
<path d="M1.373 7.086h29.288c0.755 0 1.373-0.618 1.373-1.373s-0.617-1.373-1.373-1.373h-29.288c-0.755 0-1.373 0.618-1.373 1.373s0.618 1.373 1.373 1.373v0z"></path>
<path d="M1.373 17.383h29.288c0.755 0 1.373-0.618 1.373-1.373s-0.617-1.373-1.373-1.373h-29.288c-0.755 0-1.373 0.618-1.373 1.373s0.618 1.373 1.373 1.373v0z"></path>
<path d="M1.373 27.679h29.288c0.755 0 1.373-0.618 1.373-1.373s-0.617-1.373-1.373-1.373h-29.288c-0.755 0-1.373 0.618-1.373 1.373s0.618 1.373 1.373 1.373v0z"></path>
</symbol>
<symbol id="icon-notifikasi" viewBox="0 0 32 32">
<title>notifikasi</title>
<path d="M27.388 25.946l-1.561-2.93v-7.236c0-4.473-3.004-8.257-7.1-9.442v-3.612c0-1.504-1.223-2.727-2.727-2.727s-2.727 1.223-2.727 2.727v3.612c-4.096 1.185-7.1 4.969-7.1 9.442v7.236l-1.561 2.93c-0.301 0.564-0.284 1.228 0.045 1.776s0.907 0.875 1.546 0.875h6.197c0.105 1.894 1.679 3.402 3.599 3.402s3.493-1.508 3.599-3.402h6.197c0.639 0 1.217-0.327 1.546-0.875s0.346-1.212 0.045-1.776zM14.716 2.727c0-0.708 0.576-1.284 1.284-1.284s1.284 0.576 1.284 1.284v3.31c-0.42-0.055-0.849-0.084-1.284-0.084s-0.864 0.029-1.284 0.084v-3.311zM7.616 15.781c0-4.623 3.761-8.384 8.384-8.384s8.384 3.761 8.384 8.384v6.639h-16.768v-6.639zM16 30.557c-1.124 0-2.050-0.862-2.152-1.959h4.304c-0.103 1.097-1.029 1.959-2.152 1.959zM26.106 26.98c-0.032 0.053-0.125 0.175-0.309 0.175h-19.593c-0.184 0-0.278-0.122-0.309-0.175s-0.096-0.193-0.009-0.355l1.472-2.762h17.286l1.472 2.762c0.087 0.163 0.022 0.303-0.009 0.355z"></path>
<path d="M16 9.32c-3.563 0-6.461 2.899-6.461 6.461 0 0.398 0.323 0.721 0.721 0.721s0.721-0.323 0.721-0.721c0-2.767 2.251-5.018 5.018-5.018 0.398 0 0.721-0.323 0.721-0.721s-0.323-0.721-0.721-0.721z"></path>
</symbol>
<symbol id="icon-search" viewBox="0 0 32 32">
<title>search</title>
<path d="M31.289 27.808l-6.596-6.596c1.589-2.296 2.385-4.853 2.385-7.673 0-1.834-0.356-3.587-1.067-5.26-0.712-1.672-1.674-3.115-2.885-4.327s-2.653-2.174-4.327-2.885c-1.674-0.711-3.426-1.067-5.26-1.067s-3.587 0.356-5.26 1.067c-1.672 0.711-3.115 1.673-4.327 2.885s-2.174 2.654-2.885 4.327c-0.711 1.673-1.067 3.426-1.067 5.26s0.356 3.585 1.067 5.259c0.711 1.674 1.674 3.115 2.885 4.327 1.211 1.212 2.654 2.174 4.327 2.886 1.673 0.711 3.426 1.067 5.26 1.067 2.82 0 5.379-0.795 7.673-2.386l6.596 6.578c0.461 0.486 1.037 0.731 1.73 0.731 0.667 0 1.245-0.244 1.731-0.731 0.487-0.487 0.731-1.065 0.731-1.731 0-0.679-0.236-1.256-0.711-1.73v0zM19.625 19.625c-1.686 1.686-3.715 2.529-6.086 2.529s-4.4-0.844-6.087-2.529c-1.686-1.686-2.529-3.714-2.529-6.086s0.842-4.402 2.529-6.087c1.686-1.686 3.715-2.529 6.087-2.529s4.4 0.843 6.086 2.529c1.686 1.685 2.53 3.715 2.53 6.087s-0.844 4.4-2.53 6.086v0z"></path>
</symbol>
<symbol id="icon-verifikasi" viewBox="0 0 32 32">
<title>verifikasi</title>
<path d="M16.023 0.526c-8.497 0-15.384 6.888-15.384 15.384s6.888 15.384 15.384 15.384c8.496 0 15.384-6.888 15.384-15.384s-6.888-15.384-15.384-15.384v0zM13.138 25.525l-6.37-8.293 2.824-2.945 3.545 4.507 11.117-9.074 1.382 1.382-12.5 14.423z"></path>
</symbol>
<symbol id="icon-calendar" viewBox="0 0 32 32">
<title>calendar</title>
<path d="M10 12h4v4h-4zM16 12h4v4h-4zM22 12h4v4h-4zM4 24h4v4h-4zM10 24h4v4h-4zM16 24h4v4h-4zM10 18h4v4h-4zM16 18h4v4h-4zM22 18h4v4h-4zM4 18h4v4h-4zM26 0v2h-4v-2h-14v2h-4v-2h-4v32h30v-32h-4zM28 30h-26v-22h26v22z"></path>
</symbol>
<symbol id="icon-search2" viewBox="0 0 32 32">
<title>search2</title>
<path d="M31.008 27.231l-7.58-6.447c-0.784-0.705-1.622-1.029-2.299-0.998 1.789-2.096 2.87-4.815 2.87-7.787 0-6.627-5.373-12-12-12s-12 5.373-12 12 5.373 12 12 12c2.972 0 5.691-1.081 7.787-2.87-0.031 0.677 0.293 1.515 0.998 2.299l6.447 7.58c1.104 1.226 2.907 1.33 4.007 0.23s0.997-2.903-0.23-4.007zM12 20c-4.418 0-8-3.582-8-8s3.582-8 8-8 8 3.582 8 8-3.582 8-8 8z"></path>
</symbol>
<symbol id="icon-edit" viewBox="0 0 32 32">
<title>edit</title>
<path d="M30.191 27.625h-18.099l18.972-18.409c0.34-0.331 0.53-0.777 0.53-1.242 0-0.463-0.19-0.911-0.53-1.238l-5.522-5.354c-0.708-0.686-1.854-0.686-2.559 0l-19.446 18.864c-0.18 0.178-0.32 0.39-0.41 0.625l-3.015 7.899c-0.239 0.625-0.090 1.327 0.382 1.813 0.347 0.357 0.825 0.548 1.316 0.548 0.152 0 0.306-0.021 0.459-0.060 0.143 0.036 0.291 0.060 0.446 0.060h27.476c0.998 0 1.809-0.785 1.809-1.753s-0.811-1.754-1.809-1.754zM24.262 5.105l2.962 2.869-15.661 15.182-2.956-2.866 15.656-15.185zM6.387 22.443l0.942-0.913 2.955 2.865-0.050 0.048-0.855 0.842-4.601 1.371 1.608-4.213z"></path>
</symbol>
<symbol id="icon-permanent" viewBox="0 0 32 32">
<title>permanent</title>
<path d="M28.984 18.114c4.105-4.105 4.004-10.636-0.229-14.869-2.092-2.092-4.81-3.244-7.652-3.244-2.709 0-5.272 1.071-7.217 3.016-2.391 2.392-2.788 5.589-2.509 8.368-0.488-0.049-0.988-0.078-1.494-0.078-2.804 0-5.179 0.893-6.867 2.581-4.105 4.105-4.004 10.636 0.229 14.869 2.092 2.092 4.81 3.245 7.652 3.245 2.709 0 5.272-1.071 7.217-3.016 2.391-2.391 2.788-5.589 2.509-8.368 0.488 0.049 0.988 0.078 1.494 0.078 2.804 0 5.179-0.892 6.867-2.581zM13.428 24.298c-0.888 0.889-1.867 1.075-2.531 1.075-1.072 0-2.126-0.463-2.967-1.304-1.659-1.659-1.755-3.971-0.229-5.498 0.425-0.425 1.159-0.64 2.181-0.64 1.231 0 2.575 0.329 3.551 0.642 0.621 1.946 1.043 4.676-0.006 5.725zM18.562 13.426c-0.613-1.923-1.039-4.676 0.010-5.724 0.888-0.889 1.867-1.075 2.531-1.075 1.072 0 2.126 0.463 2.967 1.304 1.659 1.659 1.755 3.971 0.229 5.498-0.425 0.425-1.159 0.64-2.181 0.64-1.232 0-2.578-0.33-3.555-0.643z"></path>
</symbol>
<symbol id="icon-text-down" viewBox="0 0 38 32">
<title>text-down</title>
<path d="M8.973 24.721l-3.204 7.279h-5.769l14.101-32h5.768l14.1 32h-5.768l-3.205-7.279h-16.023zM22.799 19.731l-5.814-13.184-5.814 13.184h11.628z"></path>
<path d="M37.942 4.075v2.32h-8.817v-2.32h8.817z"></path>
</symbol>
<symbol id="icon-text-up" viewBox="0 0 45 32">
<title>text-up</title>
<path d="M8.654 24.979l-3.090 7.021h-5.564l13.599-30.864h5.564l13.599 30.864h-5.563l-3.091-7.021h-15.454zM21.989 20.166l-5.608-12.716-5.608 12.716h11.216z"></path>
<path d="M36.73 0v8.091h7.781v2.066h-7.781v8.159h-2.203v-8.159h-7.782v-2.066h7.782v-8.091h2.203z"></path>
</symbol>
<symbol id="icon-text-size" viewBox="0 0 32 32">
<title>text-size</title>
<path d="M32 7.961l-2.724-4.718-2.725 4.718h2.194v15.363h-2.194l2.725 4.718 2.723-4.718h-2.162v-15.363z"></path>
<path d="M25.619 4.673v-1.431h-1.43v0.442h-10.664v-0.442h-1.43v0.442h-10.665v-0.442h-1.43v1.431h0.442v22.654h-0.442v1.43h1.43v-0.442h10.665v0.442h1.43v-0.442h10.665v0.442h1.43v-1.43h-0.442v-22.654h0.441zM13.509 19.648h-5.743l2.801-7.068 2.941 7.068zM1.43 4.673v-0.443h10.213l-7.176 18.070c-0.949 2.378-2.111 3.626-3.479 3.775v-21.402h0.442zM8.534 27.769v-1.664c-0.872 0-1.501-0.113-1.885-0.341s-0.575-0.625-0.575-1.195c0-0.338 0.162-0.92 0.488-1.746l0.457-1.169h7.288l0.668 1.727 0.216 0.545c0.216 0.453 0.323 0.817 0.323 1.096 0 0.314-0.128 0.573-0.384 0.776s-0.914 0.306-1.972 0.306v1.222h-1.064v0.442h-3.561zM24.631 26.083c-0.463-0.050-0.941-0.221-1.437-0.527-0.593-0.367-1.256-1.457-1.99-3.272l-7.288-18.053h10.273v0.443h0.442v21.409z"></path>
</symbol>
<symbol id="icon-hapus" viewBox="0 0 27 32">
<title>hapus</title>
<path d="M26.275 18.405l-13.74-17.555c-0.76-0.965-2.16-1.134-3.129-0.375l-8.55 6.69c-0.97 0.766-1.141 2.165-0.38 3.13l13.62 17.36 3.965 0.005 7.835-6.13c0.965-0.755 1.14-2.16 0.38-3.125v0zM9.524 18.54l-7.649-9.769 9.17-7.181 7.65 9.77-9.171 7.18z"></path>
<path d="M1.525 28.33h21.149v3.435h-21.149v-3.435z"></path>
</symbol>
<symbol id="icon-suka" viewBox="0 0 30 32">
<title>suka</title>
<path d="M28.596 17.884c0.628-0.948 0.941-1.993 0.941-3.134 0-1.321-0.486-2.469-1.46-3.444-0.975-0.974-2.129-1.461-3.462-1.461h-3.385c0.615-1.269 0.923-2.5 0.923-3.691 0-1.501-0.225-2.692-0.673-3.577s-1.103-1.535-1.961-1.953c-0.86-0.416-1.827-0.625-2.905-0.625-0.653 0-1.231 0.237-1.729 0.711-0.552 0.539-0.949 1.232-1.193 2.078-0.243 0.846-0.439 1.656-0.587 2.432-0.146 0.775-0.375 1.324-0.682 1.645-0.628 0.68-1.314 1.501-2.057 2.461-1.296 1.679-2.174 2.673-2.635 2.98h-5.269c-0.68 0-1.26 0.241-1.74 0.721s-0.721 1.062-0.721 1.74v12.307c0 0.68 0.24 1.26 0.721 1.74 0.481 0.481 1.060 0.721 1.74 0.721h5.538c0.282 0 1.166 0.257 2.654 0.769 1.577 0.552 2.964 0.972 4.163 1.26s2.413 0.433 3.644 0.433h2.481c1.807 0 3.262-0.516 4.364-1.549 1.103-1.031 1.648-2.438 1.635-4.221 0.769-0.988 1.154-2.128 1.154-3.423 0-0.282-0.019-0.558-0.058-0.828 0.486-0.859 0.731-1.782 0.731-2.768-0-0.462-0.058-0.904-0.173-1.327v0zM4.558 26.711c-0.244 0.243-0.532 0.365-0.865 0.365s-0.623-0.122-0.866-0.365c-0.243-0.243-0.365-0.531-0.365-0.866 0-0.333 0.121-0.621 0.365-0.866 0.243-0.243 0.533-0.365 0.866-0.365s0.621 0.122 0.865 0.365c0.243 0.244 0.366 0.533 0.366 0.866 0 0.335-0.122 0.623-0.366 0.866v0zM26.663 16.327c-0.276 0.59-0.619 0.892-1.028 0.905 0.191 0.218 0.351 0.522 0.481 0.913 0.128 0.392 0.191 0.747 0.191 1.067 0 0.884-0.339 1.648-1.019 2.289 0.232 0.409 0.347 0.852 0.347 1.326 0 0.474-0.113 0.945-0.338 1.413-0.224 0.468-0.528 0.805-0.913 1.010 0.065 0.385 0.096 0.744 0.096 1.076 0 2.141-1.231 3.211-3.693 3.211h-2.326c-1.68 0-3.872-0.467-6.577-1.402-0.065-0.027-0.25-0.094-0.558-0.203-0.308-0.108-0.535-0.189-0.682-0.24-0.148-0.052-0.372-0.126-0.673-0.221-0.302-0.097-0.545-0.167-0.731-0.212-0.186-0.044-0.397-0.086-0.635-0.125s-0.439-0.058-0.606-0.058h-0.614v-12.306h0.614c0.205 0 0.433-0.059 0.684-0.174s0.506-0.288 0.769-0.519c0.263-0.23 0.51-0.459 0.741-0.683 0.23-0.224 0.486-0.506 0.769-0.846s0.504-0.612 0.664-0.817 0.362-0.468 0.605-0.788c0.244-0.32 0.392-0.513 0.443-0.577 0.705-0.871 1.199-1.455 1.481-1.75 0.525-0.551 0.907-1.253 1.143-2.105 0.239-0.853 0.433-1.658 0.587-2.413 0.155-0.756 0.398-1.301 0.732-1.635 1.231 0 2.051 0.302 2.461 0.905 0.41 0.603 0.615 1.532 0.615 2.788 0 0.756-0.308 1.785-0.923 3.086s-0.922 2.323-0.922 3.068h6.769c0.641 0 1.211 0.247 1.712 0.74s0.75 1.067 0.75 1.721c-0 0.449-0.138 0.968-0.414 1.558v0z"></path>
</symbol>
<symbol id="icon-tidak-suka" viewBox="0 0 30 32">
<title>tidak-suka</title>
<path d="M0.941 14.116c-0.628 0.948-0.941 1.993-0.941 3.134 0 1.321 0.486 2.469 1.46 3.444 0.975 0.974 2.129 1.461 3.462 1.461h3.385c-0.615 1.269-0.923 2.5-0.923 3.691 0 1.501 0.225 2.692 0.673 3.577s1.103 1.535 1.961 1.953c0.86 0.416 1.827 0.625 2.905 0.625 0.653 0 1.231-0.238 1.729-0.711 0.552-0.539 0.949-1.232 1.193-2.078 0.243-0.846 0.439-1.656 0.587-2.432 0.146-0.775 0.374-1.324 0.682-1.645 0.628-0.68 1.314-1.501 2.057-2.462 1.296-1.679 2.173-2.673 2.635-2.98h5.269c0.68 0 1.26-0.241 1.74-0.721s0.721-1.062 0.721-1.74v-12.307c0-0.68-0.24-1.26-0.721-1.74s-1.060-0.721-1.74-0.721h-5.538c-0.282 0-1.166-0.257-2.654-0.769-1.577-0.552-2.964-0.972-4.163-1.26-1.199-0.29-2.413-0.434-3.644-0.434h-2.481c-1.807 0-3.262 0.516-4.364 1.549-1.103 1.031-1.648 2.438-1.635 4.221-0.769 0.988-1.154 2.128-1.154 3.423 0 0.282 0.019 0.558 0.058 0.828-0.486 0.859-0.731 1.782-0.731 2.768 0 0.462 0.058 0.905 0.173 1.328v0zM24.979 5.289c0.244-0.243 0.533-0.365 0.866-0.365s0.622 0.122 0.866 0.365c0.243 0.243 0.365 0.531 0.365 0.866 0 0.333-0.121 0.621-0.365 0.866-0.243 0.243-0.533 0.365-0.866 0.365s-0.621-0.122-0.866-0.365c-0.243-0.244-0.365-0.533-0.365-0.866 0-0.335 0.122-0.623 0.365-0.866v0zM2.874 15.673c0.276-0.59 0.619-0.892 1.028-0.905-0.191-0.218-0.351-0.522-0.481-0.913-0.128-0.392-0.191-0.747-0.191-1.067 0-0.884 0.339-1.648 1.019-2.289-0.232-0.409-0.347-0.852-0.347-1.326 0-0.474 0.113-0.945 0.338-1.413 0.224-0.468 0.528-0.805 0.913-1.010-0.065-0.385-0.096-0.743-0.096-1.076 0-2.141 1.231-3.211 3.693-3.211h2.326c1.68 0 3.872 0.467 6.577 1.402 0.065 0.027 0.25 0.094 0.558 0.203 0.308 0.108 0.535 0.189 0.682 0.24 0.148 0.052 0.372 0.126 0.673 0.221 0.302 0.097 0.545 0.167 0.731 0.212 0.186 0.044 0.397 0.086 0.635 0.125s0.439 0.058 0.606 0.058h0.614v12.306h-0.614c-0.205 0-0.433 0.059-0.684 0.174s-0.506 0.288-0.768 0.519c-0.263 0.23-0.51 0.459-0.741 0.683s-0.486 0.506-0.769 0.846c-0.282 0.34-0.504 0.612-0.664 0.817s-0.362 0.468-0.605 0.788c-0.244 0.32-0.392 0.512-0.443 0.577-0.705 0.871-1.199 1.455-1.481 1.75-0.525 0.551-0.907 1.253-1.143 2.105-0.239 0.853-0.433 1.658-0.587 2.414-0.154 0.756-0.398 1.301-0.732 1.635-1.231 0-2.051-0.302-2.461-0.905-0.41-0.603-0.615-1.532-0.615-2.788 0-0.756 0.308-1.785 0.923-3.086s0.922-2.323 0.922-3.067h-6.768c-0.641 0-1.211-0.247-1.712-0.74s-0.75-1.067-0.75-1.721c0-0.45 0.138-0.969 0.414-1.559v0z"></path>
</symbol>
<symbol id="icon-balas" viewBox="0 0 32 32">
<title>balas</title>
<path d="M1.28 14.149l9.776-9.837v4.285l10.44 0.060c0 0 8.207 0.302 8.69 9.776l-0.060 8.026c0 0-0.845-8.147-9.233-8.207l-9.837 0.060v5.492l-9.776-9.656z"></path>
</symbol>
<symbol id="icon-laporkan" viewBox="0 0 32 32">
<title>laporkan</title>
<path d="M14.691 8.272h2.632v10.529h-2.632v-10.529z"></path>
<path d="M14.691 21.434h2.632v2.632h-2.632v-2.632z"></path>
<path d="M23.904 1.692h-15.662l-8.028 14.477 8.028 14.478h15.794l7.897-14.478-8.028-14.477zM22.325 28.014h-12.635l-6.58-11.845 6.58-11.845h12.767l6.449 11.845-6.58 11.845z"></path>
</symbol>
<symbol id="icon-angle-right" viewBox="0 0 32 32">
<title>angle-right</title>
<path d="M10.022 30.090c-0.198 0.198-0.447 0.298-0.719 0.298s-0.521-0.099-0.719-0.298c-0.397-0.397-0.397-1.042 0-1.439l12.651-12.651-12.651-12.651c-0.397-0.397-0.397-1.042 0-1.439s1.042-0.397 1.439 0l13.371 13.371c0.397 0.397 0.397 1.042 0 1.439l-13.371 13.371z"></path>
</symbol>
<symbol id="icon-angle-left" viewBox="0 0 32 32">
<title>angle-left</title>
<path d="M21.978 30.090c0.198 0.198 0.447 0.298 0.719 0.298s0.521-0.099 0.719-0.298c0.397-0.397 0.397-1.042 0-1.439l-12.651-12.651 12.651-12.651c0.397-0.397 0.397-1.042 0-1.439s-1.042-0.397-1.439 0l-13.395 13.371c-0.397 0.397-0.397 1.042 0 1.439l13.395 13.371z"></path>
</symbol>
<symbol id="icon-thumbs-down" viewBox="0 0 32 32">
<title>thumbs-down</title>
<path d="M30.618 10.244c0.127-0.341 0.248-0.803 0.281-1.338 0.047-0.944-0.187-2.269-1.519-3.473 0.087-0.616 0.087-1.593-0.455-2.563-0.716-1.285-2.115-2.155-4.162-2.59-1.372-0.294-3.172-0.355-5.354-0.187-4.397-0.087-8.68 0.455-8.921 0.489l-1.573 0.187c-0.455-0.321-1.011-0.509-1.606-0.509h-4.082c-1.539 0-2.784 1.251-2.784 2.784v10.875c0 1.539 1.251 2.784 2.784 2.784h4.082c0.482 0 0.93-0.12 1.325-0.335 0.281 0.616 0.696 1.318 1.312 1.968 0.033 0.033 0.067 0.067 0.107 0.094 2.101 1.613 4.577 7.422 5.454 9.791-0.087 0.736-0.174 2.329 0.562 3.192 0.328 0.381 0.783 0.589 1.292 0.589 0.515 0 2.295-0.12 3.406-1.653 1.051-1.459 1.111-3.641 0.174-6.491-0.79-2.396-0.863-3.46-0.837-3.888 0.361 0.080 0.716 0.154 1.057 0.214h0.007c0.060 0.013 1.532 0.341 3.293 0.422 2.503 0.12 4.316-0.315 5.374-1.285 1.459-1.332 1.285-3.032 0.85-4.116 0.375-0.489 0.83-1.285 0.87-2.302 0.027-0.924-0.281-1.814-0.937-2.657zM7.309 14.902h-4.082c-0.542 0-0.977-0.442-0.977-0.977v-10.875c0-0.542 0.442-0.977 0.977-0.977h4.082c0.542 0 0.977 0.442 0.977 0.977v10.875c0 0.542-0.435 0.977-0.977 0.977zM28.838 15.551c0 0.007 0.234 0.375 0.315 0.877 0.1 0.622-0.074 1.138-0.542 1.566-1.278 1.164-4.959 0.897-7.013 0.442-0.027-0.007-0.054-0.013-0.087-0.020-0.368-0.067-0.763-0.147-1.164-0.234-0.428-0.154-1.017-0.134-1.459 0.261-0.89 0.79-0.79 2.583 0.328 5.989 0.736 2.235 0.763 3.922 0.080 4.865-0.576 0.796-1.526 0.897-1.887 0.903-0.161-0.268-0.207-1.184-0.087-1.941 0.020-0.147 0.007-0.301-0.040-0.448-0.127-0.341-3.065-8.385-6.070-10.768-0.783-0.85-1.124-1.847-1.245-2.295 0.080-0.261 0.127-0.542 0.127-0.83v-10.868c0-0.201-0.020-0.402-0.060-0.589l0.676-0.080h0.007c0.040-0.007 4.397-0.569 8.7-0.475 0.027 0 0.060 0 0.094 0 2.028-0.161 3.667-0.114 4.879 0.147 1.499 0.321 2.489 0.883 2.945 1.68 0.475 0.823 0.214 1.673 0.194 1.753-0.141 0.375-0.013 0.783 0.308 1.024 1.981 1.486 1.071 3.219 0.95 3.433-0.221 0.348-0.167 0.79 0.12 1.091 0.576 0.602 0.857 1.205 0.837 1.793-0.027 0.877-0.703 1.533-0.75 1.573-0.335 0.288-0.395 0.776-0.154 1.151z"></path>
</symbol>
<symbol id="icon-thumbs-up" viewBox="0 0 32 32">
<title>thumbs-up</title>
<path d="M30.62 21.755c0.656-0.836 0.97-1.733 0.93-2.657-0.040-1.017-0.495-1.813-0.87-2.302 0.435-1.084 0.602-2.79-0.85-4.115-1.064-0.97-2.871-1.405-5.373-1.285-1.76 0.080-3.232 0.408-3.292 0.422h-0.007c-0.335 0.060-0.689 0.134-1.051 0.214-0.027-0.428 0.047-1.492 0.836-3.888 0.937-2.851 0.883-5.032-0.174-6.491-1.111-1.532-2.884-1.653-3.406-1.653-0.502 0-0.964 0.207-1.291 0.589-0.743 0.863-0.656 2.456-0.562 3.192-0.883 2.369-3.359 8.177-5.454 9.79-0.040 0.027-0.074 0.060-0.107 0.094-0.616 0.649-1.031 1.352-1.312 1.967-0.395-0.214-0.843-0.335-1.325-0.335h-4.082c-1.539 0-2.784 1.251-2.784 2.784v10.874c0 1.539 1.251 2.784 2.784 2.784h4.082c0.596 0 1.151-0.187 1.606-0.509l1.573 0.187c0.241 0.033 4.524 0.576 8.92 0.488 0.796 0.060 1.546 0.094 2.242 0.094 1.198 0 2.242-0.094 3.112-0.281 2.048-0.435 3.446-1.305 4.156-2.583 0.542-0.977 0.542-1.947 0.455-2.563 1.332-1.205 1.566-2.536 1.519-3.473-0.027-0.542-0.147-1.004-0.274-1.345zM3.23 29.932c-0.542 0-0.977-0.442-0.977-0.977v-10.881c0-0.542 0.442-0.977 0.977-0.977h4.082c0.542 0 0.977 0.442 0.977 0.977v10.874c0 0.542-0.442 0.977-0.977 0.977h-4.082v0.007zM28.907 20.972c-0.281 0.294-0.335 0.743-0.12 1.091 0 0.007 0.274 0.475 0.308 1.118 0.047 0.877-0.375 1.653-1.258 2.315-0.314 0.241-0.442 0.656-0.308 1.031 0 0.007 0.288 0.89-0.181 1.726-0.448 0.803-1.445 1.378-2.958 1.7-1.211 0.261-2.857 0.308-4.878 0.147-0.027 0-0.060 0-0.094 0-4.303 0.094-8.652-0.468-8.699-0.475h-0.007l-0.676-0.080c0.040-0.187 0.060-0.388 0.060-0.589v-10.881c0-0.288-0.047-0.569-0.127-0.83 0.12-0.448 0.455-1.445 1.245-2.295 3.005-2.382 5.942-10.419 6.069-10.767 0.054-0.141 0.067-0.294 0.040-0.448-0.114-0.749-0.074-1.666 0.087-1.941 0.355 0.007 1.312 0.107 1.887 0.903 0.683 0.944 0.656 2.63-0.080 4.865-1.124 3.406-1.218 5.199-0.328 5.989 0.442 0.395 1.031 0.415 1.459 0.261 0.408-0.094 0.796-0.174 1.164-0.234 0.027-0.007 0.060-0.013 0.087-0.020 2.054-0.448 5.735-0.723 7.013 0.442 1.084 0.99 0.314 2.302 0.228 2.442-0.248 0.375-0.174 0.863 0.161 1.164 0.007 0.007 0.709 0.669 0.743 1.559 0.027 0.596-0.254 1.205-0.836 1.807z"></path>
</symbol>
<symbol id="icon-twitter" viewBox="0 0 32 32">
<title>twitter</title>
<path d="M32 7.075c-1.175 0.525-2.444 0.875-3.769 1.031 1.356-0.813 2.394-2.1 2.887-3.631-1.269 0.75-2.675 1.3-4.169 1.594-1.2-1.275-2.906-2.069-4.794-2.069-3.625 0-6.563 2.938-6.563 6.563 0 0.512 0.056 1.012 0.169 1.494-5.456-0.275-10.294-2.888-13.531-6.862-0.563 0.969-0.887 2.1-0.887 3.3 0 2.275 1.156 4.287 2.919 5.463-1.075-0.031-2.087-0.331-2.975-0.819 0 0.025 0 0.056 0 0.081 0 3.181 2.263 5.838 5.269 6.437-0.55 0.15-1.131 0.231-1.731 0.231-0.425 0-0.831-0.044-1.237-0.119 0.838 2.606 3.263 4.506 6.131 4.563-2.25 1.762-5.075 2.813-8.156 2.813-0.531 0-1.050-0.031-1.569-0.094 2.913 1.869 6.362 2.95 10.069 2.95 12.075 0 18.681-10.006 18.681-18.681 0-0.287-0.006-0.569-0.019-0.85 1.281-0.919 2.394-2.075 3.275-3.394z"></path>
</symbol>
<symbol id="icon-google-plus" viewBox="0 0 32 32">
<title>google-plus</title>
<path d="M10.181 14.294v3.494h5.775c-0.231 1.5-1.744 4.394-5.775 4.394-3.475 0-6.313-2.881-6.313-6.431s2.838-6.431 6.313-6.431c1.981 0 3.3 0.844 4.056 1.569l2.762-2.662c-1.775-1.656-4.075-2.662-6.819-2.662-5.631 0.006-10.181 4.556-10.181 10.188s4.55 10.181 10.181 10.181c5.875 0 9.775-4.131 9.775-9.95 0-0.669-0.075-1.181-0.163-1.688h-9.613z"></path>
<path d="M32 14h-3v-3h-3v3h-3v3h3v3h3v-3h3z"></path>
</symbol>
<symbol id="icon-facebook" viewBox="0 0 32 32">
<title>facebook</title>
<path d="M19 6h5v-6h-5c-3.86 0-7 3.14-7 7v3h-4v6h4v16h6v-16h5l1-6h-6v-3c0-0.542 0.458-1 1-1z"></path>
</symbol>
<symbol id="icon-linkedin" viewBox="0 0 32 32">
<title>linkedin</title>
<path d="M12 12h5.535v2.837h0.079c0.77-1.381 2.655-2.837 5.464-2.837 5.842 0 6.922 3.637 6.922 8.367v9.633h-5.769v-8.54c0-2.037-0.042-4.657-3.001-4.657-3.005 0-3.463 2.218-3.463 4.509v8.688h-5.767v-18z"></path>
<path d="M2 12h6v18h-6v-18z"></path>
<path d="M8 7c0 1.657-1.343 3-3 3s-3-1.343-3-3c0-1.657 1.343-3 3-3s3 1.343 3 3z"></path>
</symbol>
<symbol id="icon-bin" viewBox="0 0 32 32">
<title>bin</title>
<path d="M4 10v20c0 1.1 0.9 2 2 2h18c1.1 0 2-0.9 2-2v-20h-22zM10 28h-2v-14h2v14zM14 28h-2v-14h2v14zM18 28h-2v-14h2v14zM22 28h-2v-14h2v14z"></path>
<path d="M26.5 4h-6.5v-2.5c0-0.825-0.675-1.5-1.5-1.5h-7c-0.825 0-1.5 0.675-1.5 1.5v2.5h-6.5c-0.825 0-1.5 0.675-1.5 1.5v2.5h26v-2.5c0-0.825-0.675-1.5-1.5-1.5zM18 4h-6v-1.975h6v1.975z"></path>
</symbol>
<symbol id="icon-lapor-akun" viewBox="0 0 32 32">
<title>lapor-akun</title>
<path d="M16 3c-3.472 0-6.737 1.352-9.192 3.808s-3.808 5.72-3.808 9.192c0 3.472 1.352 6.737 3.808 9.192s5.72 3.808 9.192 3.808c3.472 0 6.737-1.352 9.192-3.808s3.808-5.72 3.808-9.192c0-3.472-1.352-6.737-3.808-9.192s-5.72-3.808-9.192-3.808zM16 0v0c8.837 0 16 7.163 16 16s-7.163 16-16 16c-8.837 0-16-7.163-16-16s7.163-16 16-16zM14 22h4v4h-4zM14 6h4v12h-4z"></path>
</symbol>
<symbol id="icon-headline" viewBox="0 0 34 28">
<title>headline</title>
<path d="M30.15 4.306v-4.306h-30.15v23.694c0 0 0 4.306 4.306 4.306h26.922c0 0 3.235-0.069 3.235-4.306v-19.388h-4.313zM4.306 25.844c-2.15 0-2.15-2.15-2.15-2.15v-21.537h25.844v21.537c0 0.988 0.304 1.677 0.726 2.15h-24.419z"></path>
<path d="M4.306 6.463h21.537v2.151h-21.537v-2.151z"></path>
<path d="M16.153 19.381h7.541v2.156h-7.541v-2.156z"></path>
<path d="M16.153 15.075h9.69v2.156h-9.69v-2.156z"></path>
<path d="M16.153 10.769h9.69v2.156h-9.69v-2.156z"></path>
<path d="M4.306 10.769h9.69v10.769h-9.69v-10.769z"></path>
</symbol>
<symbol id="icon-index" viewBox="0 0 28 28">
<title>index</title>
<path d="M3.057 17.057c-1.685 0-3.057-1.371-3.057-3.056s1.371-3.057 3.057-3.057 3.057 1.371 3.057 3.057c0 1.685-1.371 3.056-3.057 3.056zM3.057 11.86c-1.18 0-2.14 0.96-2.14 2.14s0.96 2.14 2.14 2.14 2.14-0.96 2.14-2.14-0.96-2.14-2.14-2.14z"></path>
<path d="M13.828 17.057c-1.685 0-3.057-1.371-3.057-3.056s1.371-3.057 3.057-3.057c1.686 0 3.057 1.371 3.057 3.057s-1.371 3.056-3.057 3.056zM13.828 11.86c-1.18 0-2.14 0.96-2.14 2.14s0.96 2.14 2.14 2.14c1.18 0 2.14-0.96 2.14-2.14s-0.96-2.14-2.14-2.14z"></path>
<path d="M24.943 17.057c-1.686 0-3.057-1.371-3.057-3.056s1.371-3.057 3.057-3.057 3.057 1.371 3.057 3.057c0 1.685-1.371 3.056-3.057 3.056zM24.943 11.86c-1.18 0-2.14 0.96-2.14 2.14s0.96 2.14 2.14 2.14c1.18 0 2.14-0.96 2.14-2.14s-0.96-2.14-2.14-2.14z"></path>
</symbol>
<symbol id="icon-plus" viewBox="0 0 22 28">
<title>plus</title>
<path d="M22 11.5v3c0 0.828-0.672 1.5-1.5 1.5h-6.5v6.5c0 0.828-0.672 1.5-1.5 1.5h-3c-0.828 0-1.5-0.672-1.5-1.5v-6.5h-6.5c-0.828 0-1.5-0.672-1.5-1.5v-3c0-0.828 0.672-1.5 1.5-1.5h6.5v-6.5c0-0.828 0.672-1.5 1.5-1.5h3c0.828 0 1.5 0.672 1.5 1.5v6.5h6.5c0.828 0 1.5 0.672 1.5 1.5z"></path>
</symbol>
<symbol id="icon-check" viewBox="0 0 28 28">
<title>check</title>
<path d="M26.109 8.844c0 0.391-0.156 0.781-0.438 1.062l-13.438 13.438c-0.281 0.281-0.672 0.438-1.062 0.438s-0.781-0.156-1.062-0.438l-7.781-7.781c-0.281-0.281-0.438-0.672-0.438-1.062s0.156-0.781 0.438-1.062l2.125-2.125c0.281-0.281 0.672-0.438 1.062-0.438s0.781 0.156 1.062 0.438l4.594 4.609 10.25-10.266c0.281-0.281 0.672-0.438 1.062-0.438s0.781 0.156 1.062 0.438l2.125 2.125c0.281 0.281 0.438 0.672 0.438 1.062z"></path>
</symbol>
<symbol id="icon-tidak-ikuti" viewBox="0 0 22 28">
<title>tidak-ikuti</title>
<path d="M20.281 20.656c0 0.391-0.156 0.781-0.438 1.062l-2.125 2.125c-0.281 0.281-0.672 0.438-1.062 0.438s-0.781-0.156-1.062-0.438l-4.594-4.594-4.594 4.594c-0.281 0.281-0.672 0.438-1.062 0.438s-0.781-0.156-1.062-0.438l-2.125-2.125c-0.281-0.281-0.438-0.672-0.438-1.062s0.156-0.781 0.438-1.062l4.594-4.594-4.594-4.594c-0.281-0.281-0.438-0.672-0.438-1.062s0.156-0.781 0.438-1.062l2.125-2.125c0.281-0.281 0.672-0.438 1.062-0.438s0.781 0.156 1.062 0.438l4.594 4.594 4.594-4.594c0.281-0.281 0.672-0.438 1.062-0.438s0.781 0.156 1.062 0.438l2.125 2.125c0.281 0.281 0.438 0.672 0.438 1.062s-0.156 0.781-0.438 1.062l-4.594 4.594 4.594 4.594c0.281 0.281 0.438 0.672 0.438 1.062z"></path>
</symbol>
<symbol id="icon-write" viewBox="0 0 24 28">
<title>write</title>
<path d="M5.672 24l1.422-1.422-3.672-3.672-1.422 1.422v1.672h2v2h1.672zM13.844 9.5c0-0.203-0.141-0.344-0.344-0.344-0.094 0-0.187 0.031-0.266 0.109l-8.469 8.469c-0.078 0.078-0.109 0.172-0.109 0.266 0 0.203 0.141 0.344 0.344 0.344 0.094 0 0.187-0.031 0.266-0.109l8.469-8.469c0.078-0.078 0.109-0.172 0.109-0.266zM13 6.5l6.5 6.5-13 13h-6.5v-6.5zM23.672 8c0 0.531-0.219 1.047-0.578 1.406l-2.594 2.594-6.5-6.5 2.594-2.578c0.359-0.375 0.875-0.594 1.406-0.594s1.047 0.219 1.422 0.594l3.672 3.656c0.359 0.375 0.578 0.891 0.578 1.422z"></path>
</symbol>
<symbol id="icon-brief" viewBox="0 0 28 28">
<title>brief</title>
<path d="M13.875 18.5l1.813-1.813-2.375-2.375-1.813 1.813v0.875h1.5v1.5h0.875zM20.75 7.25c-0.141-0.141-0.375-0.125-0.516 0.016l-5.469 5.469c-0.141 0.141-0.156 0.375-0.016 0.516s0.375 0.125 0.516-0.016l5.469-5.469c0.141-0.141 0.156-0.375 0.016-0.516zM22 16.531v2.969c0 2.484-2.016 4.5-4.5 4.5h-13c-2.484 0-4.5-2.016-4.5-4.5v-13c0-2.484 2.016-4.5 4.5-4.5h13c0.625 0 1.25 0.125 1.828 0.391 0.141 0.063 0.25 0.203 0.281 0.359 0.031 0.172-0.016 0.328-0.141 0.453l-0.766 0.766c-0.141 0.141-0.328 0.187-0.5 0.125-0.234-0.063-0.469-0.094-0.703-0.094h-13c-1.375 0-2.5 1.125-2.5 2.5v13c0 1.375 1.125 2.5 2.5 2.5h13c1.375 0 2.5-1.125 2.5-2.5v-1.969c0-0.125 0.047-0.25 0.141-0.344l1-1c0.156-0.156 0.359-0.187 0.547-0.109s0.313 0.25 0.313 0.453zM20.5 5l4.5 4.5-10.5 10.5h-4.5v-4.5zM27.438 7.063l-1.437 1.437-4.5-4.5 1.437-1.437c0.578-0.578 1.547-0.578 2.125 0l2.375 2.375c0.578 0.578 0.578 1.547 0 2.125z"></path>
</symbol>
<symbol id="icon-list-ul" viewBox="0 0 28 28">
<title>list-ul</title>
<path d="M6 22c0 1.656-1.344 3-3 3s-3-1.344-3-3 1.344-3 3-3 3 1.344 3 3zM6 14c0 1.656-1.344 3-3 3s-3-1.344-3-3 1.344-3 3-3 3 1.344 3 3zM28 20.5v3c0 0.266-0.234 0.5-0.5 0.5h-19c-0.266 0-0.5-0.234-0.5-0.5v-3c0-0.266 0.234-0.5 0.5-0.5h19c0.266 0 0.5 0.234 0.5 0.5zM6 6c0 1.656-1.344 3-3 3s-3-1.344-3-3 1.344-3 3-3 3 1.344 3 3zM28 12.5v3c0 0.266-0.234 0.5-0.5 0.5h-19c-0.266 0-0.5-0.234-0.5-0.5v-3c0-0.266 0.234-0.5 0.5-0.5h19c0.266 0 0.5 0.234 0.5 0.5zM28 4.5v3c0 0.266-0.234 0.5-0.5 0.5h-19c-0.266 0-0.5-0.234-0.5-0.5v-3c0-0.266 0.234-0.5 0.5-0.5h19c0.266 0 0.5 0.234 0.5 0.5z"></path>
</symbol>
<symbol id="icon-angle-up" viewBox="0 0 18 28">
<title>angle-up</title>
<path d="M16.797 18.5c0 0.125-0.063 0.266-0.156 0.359l-0.781 0.781c-0.094 0.094-0.219 0.156-0.359 0.156-0.125 0-0.266-0.063-0.359-0.156l-6.141-6.141-6.141 6.141c-0.094 0.094-0.234 0.156-0.359 0.156s-0.266-0.063-0.359-0.156l-0.781-0.781c-0.094-0.094-0.156-0.234-0.156-0.359s0.063-0.266 0.156-0.359l7.281-7.281c0.094-0.094 0.234-0.156 0.359-0.156s0.266 0.063 0.359 0.156l7.281 7.281c0.094 0.094 0.156 0.234 0.156 0.359z"></path>
</symbol>
<symbol id="icon-angle-down" viewBox="0 0 18 28">
<title>angle-down</title>
<path d="M16.797 11.5c0 0.125-0.063 0.266-0.156 0.359l-7.281 7.281c-0.094 0.094-0.234 0.156-0.359 0.156s-0.266-0.063-0.359-0.156l-7.281-7.281c-0.094-0.094-0.156-0.234-0.156-0.359s0.063-0.266 0.156-0.359l0.781-0.781c0.094-0.094 0.219-0.156 0.359-0.156 0.125 0 0.266 0.063 0.359 0.156l6.141 6.141 6.141-6.141c0.094-0.094 0.234-0.156 0.359-0.156s0.266 0.063 0.359 0.156l0.781 0.781c0.094 0.094 0.156 0.234 0.156 0.359z"></path>
</symbol>
<symbol id="icon-user-plus" viewBox="0 0 32 28">
<title>user-plus</title>
<path d="M11 14c-3.313 0-6-2.688-6-6s2.688-6 6-6 6 2.688 6 6-2.688 6-6 6zM26 16h5.5c0.266 0 0.5 0.234 0.5 0.5v3c0 0.266-0.234 0.5-0.5 0.5h-5.5v5.5c0 0.266-0.234 0.5-0.5 0.5h-3c-0.266 0-0.5-0.234-0.5-0.5v-5.5h-5.5c-0.266 0-0.5-0.234-0.5-0.5v-3c0-0.266 0.234-0.5 0.5-0.5h5.5v-5.5c0-0.266 0.234-0.5 0.5-0.5h3c0.266 0 0.5 0.234 0.5 0.5v5.5zM14.5 19.5c0 1.094 0.906 2 2 2h4v3.719c-0.766 0.562-1.734 0.781-2.672 0.781h-13.656c-2.5 0-4.172-1.5-4.172-4.047 0-3.531 0.828-8.953 5.406-8.953 0.25 0 0.422 0.109 0.609 0.266 1.531 1.172 3.016 1.906 4.984 1.906s3.453-0.734 4.984-1.906c0.187-0.156 0.359-0.266 0.609-0.266 1.328 0 2.5 0.5 3.391 1.5h-3.484c-1.094 0-2 0.906-2 2v3z"></path>
</symbol>
<symbol id="icon-periode-over" viewBox="0 0 32 28">
<title>periode-over</title>
<path d="M11 14c-3.313 0-6-2.688-6-6s2.688-6 6-6 6 2.688 6 6-2.688 6-6 6zM27.828 19l3.891 3.891c0.094 0.094 0.141 0.219 0.141 0.359 0 0.125-0.047 0.25-0.141 0.344l-2.125 2.125c-0.094 0.094-0.219 0.141-0.344 0.141-0.141 0-0.266-0.047-0.359-0.141l-3.891-3.891-3.891 3.891c-0.094 0.094-0.219 0.141-0.359 0.141-0.125 0-0.25-0.047-0.344-0.141l-2.125-2.125c-0.094-0.094-0.141-0.219-0.141-0.344 0-0.141 0.047-0.266 0.141-0.359l3.891-3.891-3.891-3.891c-0.094-0.094-0.141-0.219-0.141-0.359 0-0.125 0.047-0.25 0.141-0.344l2.125-2.125c0.094-0.094 0.219-0.141 0.344-0.141 0.141 0 0.266 0.047 0.359 0.141l3.891 3.891 3.891-3.891c0.094-0.094 0.219-0.141 0.359-0.141 0.125 0 0.25 0.047 0.344 0.141l2.125 2.125c0.094 0.094 0.141 0.219 0.141 0.344 0 0.141-0.047 0.266-0.141 0.359zM20.047 19l-2.828 2.828c-0.375 0.375-0.578 0.891-0.578 1.422 0 0.516 0.203 1.031 0.578 1.406l1.297 1.297c-0.219 0.031-0.453 0.047-0.688 0.047h-13.656c-2.5 0-4.172-1.5-4.172-4.047 0-3.531 0.828-8.953 5.406-8.953 0.25 0 0.422 0.109 0.609 0.266 1.5 1.188 3.031 1.906 4.984 1.906s3.484-0.719 4.984-1.906c0.187-0.156 0.359-0.266 0.609-0.266 0.297 0 0.594 0.031 0.891 0.094-0.516 0.5-0.844 0.906-0.844 1.656 0 0.531 0.203 1.047 0.578 1.422z"></path>
</symbol>
</defs>
</svg>
