<?xml version="1.0" encoding="utf-8"?>
<!-- Generator: Adobe Illustrator 22.1.0, SVG Export Plug-In . SVG Version: 6.00 Build 0)  -->
<svg version="1.1" id="Layer_1" xmlns="http://www.w3.org/2000/svg" xmlns:xlink="http://www.w3.org/1999/xlink" x="0px" y="0px"
	 viewBox="0 0 60 33.2" style="enable-background:new 0 0 60 33.2;" xml:space="preserve">
<style type="text/css">
	.st0{fill:#E5E5E5;}
</style>
<path class="st0" d="M60,32C60,14.4,46.6,0,30,0C13.5,0,0,14.4,0,32c0,0,0,0.1,0,0.1h0c0,0.6,0.6,1.1,1.4,1.1c0.8,0,1.4-0.5,1.4-1.1
	h0c0,0,0-0.1,0-0.1C2.8,16,15,3,30,3c15,0,27.2,13,27.2,29c0,0,0,0.1,0,0.1h0c0,0.6,0.6,1.1,1.4,1.1C59.4,33.2,60,32.7,60,32L60,32
	C60,32.1,60,32,60,32z"/>
<path class="st0" d="M52.1,31.8c0.1-0.6,0.1-1.3,0.1-1.9c0-12-9.8-21.8-21.8-21.8S8.5,17.8,8.5,29.8c0,0.6,0,1.3,0.1,1.9h0
	c0,0.1,0,0.1,0,0.2c0,0.7,0.7,1.2,1.5,1.2s1.5-0.6,1.5-1.2c0-0.1,0-0.1,0-0.2h0c-0.1-0.6-0.1-1.3-0.1-1.9C11.5,19.4,20,11,30.3,11
	s18.8,8.5,18.8,18.8c0,0.6,0,1.3-0.1,1.9h0c0,0.1,0,0.1,0,0.2c0,0.7,0.7,1.2,1.5,1.2c0.8,0,1.5-0.6,1.5-1.2
	C52.1,31.9,52.1,31.8,52.1,31.8L52.1,31.8z"/>
</svg>
