<?xml version="1.0" encoding="utf-8"?>
<!-- Generator: Adobe Illustrator 22.1.0, SVG Export Plug-In . SVG Version: 6.00 Build 0)  -->
<svg version="1.1" id="Layer_1" xmlns="http://www.w3.org/2000/svg" xmlns:xlink="http://www.w3.org/1999/xlink" x="0px" y="0px"
	 viewBox="0 0 124.7 39.7" style="enable-background:new 0 0 124.7 39.7;" xml:space="preserve">
<style type="text/css">
	.st0{fill:#E5E5E5;stroke:#E5E5E5;stroke-width:3;stroke-miterlimit:10;}
</style>
<path class="st0" d="M123.1,2.2c-0.3-0.5-0.8-0.7-1.3-0.7H82.9c-0.2,0-0.3,0-0.5,0.1c-0.2,0-0.3-0.1-0.5-0.1H43
	c-0.2,0-0.4,0-0.6,0.1c-0.2-0.1-0.4-0.1-0.6-0.1H3c-0.6,0-1.1,0.3-1.3,0.7c-0.3,0.5-0.2,1,0.1,1.5l19.4,33.7
	c0.3,0.5,0.8,0.8,1.3,0.8c0.5,0,1-0.3,1.3-0.8L42.5,5l18.7,32.4c0.3,0.5,0.8,0.8,1.3,0.8s1-0.3,1.3-0.8L82.4,5.1L101,37.4
	c0.3,0.5,0.8,0.8,1.3,0.8c0.5,0,1-0.3,1.3-0.8L123,3.7C123.3,3.2,123.3,2.7,123.1,2.2z M22.5,35.8L3.7,3.4l37.5,0L22.5,35.8z
	 M62.4,35.8L43.7,3.4l37.5,0L62.4,35.8z M102.3,35.8L83.5,3.4l37.5,0L102.3,35.8z"/>
</svg>
