<?xml version="1.0" encoding="utf-8"?>
<!-- Generator: Adobe Illustrator 22.1.0, SVG Export Plug-In . SVG Version: 6.00 Build 0)  -->
<svg version="1.1" id="Layer_1" xmlns="http://www.w3.org/2000/svg" xmlns:xlink="http://www.w3.org/1999/xlink" x="0px" y="0px"
	 viewBox="0 0 261.3 58.8" style="enable-background:new 0 0 261.3 58.8;" xml:space="preserve">
<style type="text/css">
	.st0{fill:#E5E5E5;stroke:#E5E5E5;stroke-width:3;stroke-miterlimit:10;}
</style>
<path class="st0" d="M256.9,1.5c-0.6,0-1.2,0.2-1.8,0.5l-51.2,30.9c-0.9,0.6-2.5,1.5-3.4,2l-23.3,13.8V4.7c0-1.9-1.2-3.2-2.9-3.2
	c-0.6,0-1.2,0.2-1.8,0.5l-51.2,30.9c-0.9,0.6-2.5,1.5-3.4,2L92,50.3V4.7c0-1.9-1.2-3.2-2.9-3.2c-0.6,0-1.2,0.2-1.8,0.5L36.1,32.9
	c-0.9,0.6-2.5,1.5-3.4,2L3.1,52.5c-1.8,1.1-1.7,2.4-1.5,3c0.1,0.5,0.7,1.8,2.8,1.8H88c0.3,0,0.5,0,0.8-0.1c0.2,0,0.5,0.1,0.8,0.1
	h82.6h1h82.6c2.2,0,4-1.8,4-4V4.7C259.8,2.9,258.5,1.5,256.9,1.5z M34.7,38.4c0.9-0.6,2.5-1.5,3.4-2.1L88,6.3l0,46.5
	c-0.2,0.2-0.4,0.3-0.6,0.5H9.7L34.7,38.4z M119.9,38.4c1-0.6,2.5-1.5,3.4-2.1l49.9-30.1l0,44.9l-2.2,1.3c-0.4,0.2-0.7,0.5-0.9,0.7
	H94.9L119.9,38.4z M255.8,53.3h-78.3l25-14.8c1-0.6,2.5-1.5,3.4-2.1l49.9-30.1L255.8,53.3z"/>
</svg>
