<?xml version="1.0" encoding="utf-8"?>
<!-- Generator: Adobe Illustrator 22.1.0, SVG Export Plug-In . SVG Version: 6.00 Build 0)  -->
<svg version="1.1" id="Layer_1" xmlns="http://www.w3.org/2000/svg" xmlns:xlink="http://www.w3.org/1999/xlink" x="0px" y="0px"
	 viewBox="0 0 61 32.7" style="enable-background:new 0 0 61 32.7;" xml:space="preserve">
<style type="text/css">
	.st0{fill:#E5E5E5;}
</style>
<path class="st0" d="M60.3,10.2c-0.8-0.9-1.9-0.5-2.9-0.5c-18.1,0-36.1,0-54.2,0c-0.9,0-1.9-0.3-2.6,0.5c-1,1.2-0.8,2.2,0.4,3.1l0,0
	c0.8,0.7,1.8,0.4,2.7,0.4c17.9,0,35.9,0,53.8,0c0.8,0,1.7,0.3,2.4-0.5C61.2,12.4,61.3,11.4,60.3,10.2z"/>
<path class="st0" d="M60.4,19.9c-0.6-0.8-1.4-0.7-2.2-0.8c-7.4-0.7-14.7,0.3-22.1-0.1c-6.3-0.3-12.6,0.1-18.8,0.2
	c-4.9,0-9.8-0.3-14.8-0.1c-0.8,0-1.5-0.1-1.9,0.8c-0.7,0.9-0.7,1.7,0,2.6c0,0,0,0,0,0c0,0,0,0,0,0c0.6,1.2,1.7,1,2.7,1
	c18,0,36.1,0,54.1,0c1.1,0,2.2,0.1,3-1C61.2,21.6,61.2,20.8,60.4,19.9z"/>
<path class="st0" d="M60.7,1.2C60-0.1,58.8,0,57.6,0C39.4,0,21.3,0,3.2,0C1.6,0,0.1,0,0.1,2.1c0,2.1,1.5,2.1,3.1,2.1
	c9.1,0,18.2,0,27.3,0c9.1,0,18.2,0,27.3,0C60.3,4.1,61.6,2.8,60.7,1.2z"/>
<path class="st0" d="M60.5,29.6c-0.4-1.4-1.6-1-2.5-1c-18.3,0-36.7,0-55,0c-0.8,0-1.7-0.3-2.4,0.6v0l0,0c0,0,0,0,0,0c0,0,0,0,0,0
	c-0.8,1-0.9,2.1,0.1,3.1h0c0.7,0.8,1.6,0.5,2.4,0.5c18.1,0,36.3,0,54.4,0c0.8,0,1.7,0.3,2.4-0.5h0C60.8,31.5,61.4,30.7,60.5,29.6z"
	/>
</svg>
