<?xml version="1.0" encoding="utf-8"?>
<!-- Generator: Adobe Illustrator 22.1.0, SVG Export Plug-In . SVG Version: 6.00 Build 0)  -->
<svg version="1.1" id="Layer_1" xmlns="http://www.w3.org/2000/svg" xmlns:xlink="http://www.w3.org/1999/xlink" x="0px" y="0px"
	 viewBox="0 0 67.3 67.3" style="enable-background:new 0 0 67.3 67.3;" xml:space="preserve">
<style type="text/css">
	.st0{fill:#E5E5E5;}
</style>
<g>
	<path class="st0" d="M60.3,67.3H7c-3.9,0-7-3.1-7-7V7c0-3.9,3.1-7,7-7h53.3c3.9,0,7,3.1,7,7v53.3C67.3,64.1,64.1,67.3,60.3,67.3z
		 M7,4C5.3,4,4,5.3,4,7v53.3c0,1.7,1.3,3,3,3h53.3c1.7,0,3-1.3,3-3V7c0-1.7-1.3-3-3-3H7z"/>
</g>
</svg>
